<svg width="35" height="36" viewBox="0 0 35 36" fill="none" xmlns="http://www.w3.org/2000/svg">
<path d="M18.5917 18.0109L24.7565 11.8798C25.0521 11.5872 25.0521 11.1136 24.7565 10.8218C24.4617 10.5292 23.9828 10.5292 23.688 10.8218L17.5285 16.9476L11.312 10.7305C11.0172 10.4349 10.5384 10.4349 10.2436 10.7305C9.94875 11.0268 9.94875 11.5064 10.2436 11.8019L16.4555 18.0146L10.2211 24.2145C9.9263 24.5071 9.9263 24.9807 10.2211 25.2726C10.5159 25.5651 10.9948 25.5651 11.2896 25.2726L17.5187 19.0779L23.7104 25.2703C24.0052 25.5659 24.4841 25.5659 24.7789 25.2703C25.0737 24.974 25.0737 24.4944 24.7789 24.1989L18.5917 18.0109Z" fill="black"/>
<circle cx="17.5" cy="18" r="17.5" fill="#FF0101" fill-opacity="0.46"/>
</svg>
